<svg version="1.1" xmlns="http://www.w3.org/2000/svg" xmlns:xlink="http://www.w3.org/1999/xlink" width="103.55211" height="134.23776" viewBox="0,0,103.55211,134.23776"><g transform="translate(-188.25578,-113.28782)"><g data-paper-data="{&quot;isPaintingLayer&quot;:true}" stroke="none" stroke-linecap="butt" stroke-linejoin="miter" stroke-miterlimit="10" stroke-dasharray="" stroke-dashoffset="0" style="mix-blend-mode: normal"><g><path d="M248.41,201.6l-10.103,-0.6l-16.089,-5.875l-8.716,-8.925l-4.247,-15.094l6.127,-14.531l9.875,-8.775l10.36,-3.7l11.274,-1.6l11.666,0.9l12.225,3.2l12.252,5.9l5.778,8l0.997,4.6l0.996,8.378l-1.594,8.322l-4.184,8.1l-5.479,5.2l-9.065,5.1l-13.249,2.6l-8.824,-1.2" fill="#ffffff" fill-rule="evenodd" stroke-width="1"/><path d="M247.695,114.125l3.213,1.5l2.914,4.5l-0.822,6.15l-6.109,2.7l-5.896,-1.275l-3.461,-5.325l0.897,-4.05l4.558,-3.3l4.706,-0.9" fill="#ef463c" fill-rule="evenodd" stroke-width="1"/><path d="M283.259,163.55l2.54,11.4v8.175l-4.856,0.9l-4.184,-2.925l-0.897,5.625c0,0 -4.109,7.725 -4.259,7.95c-0.149,0.225 -7.097,4.575 -7.097,4.575l-1.719,2.25l3.138,-0.225l-1.195,5.325l-0.523,5.025l2.167,5.175l1.867,6.225l1.644,6.9l1.195,4.65l-0.672,3.6l-3.511,1.275l-2.84,-0.075l-3.063,2.625l-6.724,1.125l-4.341,-1.425l-3.038,-4.725l-2.632,-13.65l-4.782,1.575l-9.488,1.65l-4.184,0.075l0.821,2.025l0.972,8.175l-0.374,3.825l-3.81,2.55l-3.586,0.225l-6.052,2.7l-6.724,-0.75c0,0 -2.391,-2.325 -2.541,-2.55c-0.149,-0.225 -2.54,-7.65 -2.54,-7.65l-1.27,-7.95l0.897,-18.375l-2.914,-1.65l-5.006,-5.1l-3.81,-6.75l-0.747,-5.1l0.672,-2.325l2.54,-0.9l2.541,1.575l4.034,6.225l3.586,5.85l3.063,2.125l6.426,-2.05l7.994,3.3h9.563l10.492,-0.9l1.985,-2.55l-5.678,-3.375l-5.305,-6.975l-1.419,-4.725l-1.27,-3.225l-2.466,2.775c0,0 -3.063,2.55 -3.287,2.475c-0.224,-0.075 -2.391,-2.1 -2.391,-2.1l-2.839,-6.174l-0.373,-5.376v-9.3h19.798l4.208,-1.575l14.919,-1.275l10.609,1.95c0,0 13.897,-3.075 14.42,-3.15z" fill="#fcb322" fill-rule="evenodd" stroke-width="1"/><path d="M232.23,191.15c0,0 1.27,3.075 1.419,3.3c0.15,0.225 3.811,3.075 3.811,3.075l4.707,3.825l-7.173,2.775l-2.241,7.125l0.075,5.175l1.344,4.2l2.765,4.8l-7.92,1.35l-5.155,-0.975l-1.419,-1.8l-1.644,-6.225v-6.15l0.971,-5.625l0.075,-1.725l-8.667,-2.25c0,0 -1.27,-2.625 -1.195,-2.925c0.074,-0.3 0,-6 0,-6l1.345,-3.3l9.787,0.6h7.172z" fill="#71cbd2" fill-rule="evenodd" stroke-width="1"/><path d="M213.593,188.181c-0.849,-1.227 -1.857,-2.262 -2.357,-3.502c-0.848,-2.105 -1.474,-4.316 -2.02,-6.526c-1.319,-5.332 -0.393,-10.413 1.945,-15.291c1.599,-3.338 3.302,-6.64 5.885,-9.324c1.708,-1.773 3.632,-3.347 5.531,-4.921c4.61,-3.821 10.101,-5.394 15.898,-6.185c3.185,-0.434 6.357,-0.972 9.806,-1.504c-0.446,-3.561 -0.902,-7.2 -1.362,-10.877c-0.959,-0.137 -1.78,-0.324 -2.606,-0.359c-3.531,-0.153 -5.411,-2.403 -6.919,-5.263c-2.418,-4.584 1.295,-9.533 5.474,-10.687c1.952,-0.539 3.854,-0.599 5.812,-0.176c2.629,0.566 4.251,2.352 5.199,4.675c0.59,1.447 0.764,3.089 0.969,4.664c0.317,2.432 -1.266,4.788 -3.605,5.576c-0.595,0.199 -1.19,0.399 -1.901,0.637c0.285,3.986 0.568,7.968 0.855,11.981c2.175,0.198 4.368,0.308 6.534,0.616c3.842,0.546 7.67,1.111 11.391,2.356c4.378,1.465 8.577,3.307 12.584,5.562c1.409,0.793 2.566,2.045 3.815,3.113c2.404,2.058 4.648,5.478 5.691,8.483c0.25,0.72 0.425,1.443 0.666,2.146c1.52,4.432 0.86,9.387 0.239,13.993c-0.443,3.292 -1.593,6.272 -2.995,9.156c-0.881,1.813 -2.214,3.464 -3.593,4.959c-3.192,3.46 -6.781,6.472 -11.089,8.463c-2.002,0.926 -4.069,1.753 -6.179,2.378c-0.89,0.264 -0.782,0.81 -0.888,1.325c-0.454,2.198 -0.851,4.408 -1.266,6.615c-0.045,0.238 -0.162,0.516 -0.087,0.715c0.55,1.454 1.202,2.868 1.703,4.337c0.863,2.536 1.731,5.077 2.431,7.66c1.007,3.716 2.014,7.443 2.71,11.223c0.267,1.451 -0.163,3.102 -0.559,4.586c-0.412,1.545 -2.062,1.557 -3.273,1.938c-0.822,0.258 -1.794,0.015 -2.696,0.056c-0.386,0.018 -0.945,0.059 -1.121,0.307c-2.113,2.976 -5.138,3.686 -8.514,3.546c-1.031,-0.042 -2.084,-0.057 -3.082,-0.285c-2.429,-0.554 -4.322,-1.82 -5.558,-4.127c-1.756,-3.274 -2.084,-6.945 -3.116,-10.417c-0.416,-1.404 -0.604,-2.876 -0.945,-4.563c-0.792,0.188 -1.61,0.342 -2.403,0.579c-4.247,1.27 -8.55,2.134 -13.207,1.806c0,0.778 -0.189,1.564 0.033,2.208c0.985,2.854 1.332,5.801 1.409,8.785c0.018,0.719 -0.179,1.509 -0.494,2.159c-1.715,3.537 -4.495,4.569 -7.709,3.53c-0.239,-0.077 -0.653,0.09 -0.864,0.28c-2.478,2.229 -5.333,3.187 -8.669,2.884c-1.506,-0.136 -2.933,-0.297 -4.313,-1.026c-3.3,-1.744 -4.574,-4.705 -5.173,-8.151c-0.189,-1.087 -0.465,-2.163 -0.774,-3.223c-1.034,-3.545 -1.348,-7.2 -1.636,-10.853c-0.166,-2.118 -0.324,-4.264 -0.169,-6.375c0.184,-2.526 0.641,-5.038 1.121,-7.53c0.148,-0.769 0.058,-1.25 -0.575,-1.57c-3.617,-1.833 -5.773,-5.037 -7.897,-8.307c-1.868,-2.878 -2.884,-5.963 -3.357,-9.383c-0.239,-1.722 0.168,-2.875 1.082,-4.094c1.295,-1.728 2.767,-1.859 4.541,-0.637c1.895,1.305 2.901,3.209 3.819,5.187c1.133,2.441 2.494,4.794 4.158,6.911c0.819,1.04 1.71,2.101 2.73,2.95c1.149,0.96 1.626,0.355 2.853,-0.261c0.666,-0.335 2.426,-0.717 3,-1.313c0.659,-0.684 0.019,-1.603 -0.093,-2.387c-0.128,-0.893 -0.083,-1.924 0.006,-2.823c0.202,-2.045 0.981,-3.977 2.228,-5.605c0.219,-0.287 0.559,-0.479 0.946,-0.8zM264.344,200.424c0.452,0.256 0.527,0.336 0.589,0.327c0.332,-0.046 0.667,-0.09 0.99,-0.177c4.975,-1.343 9.512,-3.542 13.315,-7.079c1.749,-1.626 3.572,-3.24 4.994,-5.137c2.378,-3.174 3.919,-6.734 4.668,-10.739c0.86,-4.596 0.709,-9.03 -0.71,-13.421c-0.642,-1.984 -1.428,-3.962 -2.454,-5.768c-0.915,-1.61 -1.998,-3.327 -3.448,-4.391c-5.444,-3.99 -11.392,-6.983 -18.012,-8.624c-5.411,-1.34 -10.88,-2.182 -16.404,-1.758c-5.176,0.398 -10.365,0.912 -15.392,2.555c-3.653,1.194 -6.926,2.901 -9.891,5.303c-5.127,4.153 -8.802,9.354 -10.634,15.683c-0.694,2.398 -0.782,5.053 -0.692,7.575c0.074,2.087 0.774,4.16 1.279,6.218c0.282,1.154 0.5,2.422 1.142,3.37c2.375,3.511 4.795,7.016 8.665,9.124c1.658,0.903 3.205,2.034 4.917,2.806c2.282,1.029 4.652,1.883 7.031,2.671c1.471,0.487 3.028,0.712 4.791,1.108c-0.248,-0.333 -0.283,-0.435 -0.346,-0.458c-3.691,-1.33 -6.114,-3.969 -7.746,-7.461c-0.137,-0.293 -0.618,-0.593 -0.945,-0.599c-1.623,-0.031 -3.319,-0.191 -4.925,0.059c-0.927,0.144 -2.201,0.605 -2.835,-0.435c-1.093,-1.791 1.378,-1.59 2.272,-1.6c1.647,-0.018 3.328,-0.213 4.974,-0.318c-0.501,-1.762 -0.948,-3.332 -1.459,-5.127c-0.887,0.961 -1.536,1.788 -2.312,2.47c-0.854,0.75 -1.586,1.763 -2.969,1.632c-1.619,-0.152 -3.006,-0.673 -3.792,-2.201c-0.456,-0.887 -0.834,-1.816 -1.209,-2.741c-1.073,-2.643 -2.001,-5.335 -2.002,-8.231c0,-2.852 0.015,-5.708 0.163,-8.554c0.127,-2.415 0.844,-3.061 3.318,-3.15c2.366,-0.085 4.741,-0.12 7.106,-0.035c3.271,0.116 6.536,0.377 9.804,0.546c0.503,0.026 1.116,0.058 1.502,-0.189c2.89,-1.848 6.08,-2.798 9.432,-3.178c4.056,-0.46 8.127,-0.35 12.08,0.704c1.727,0.461 3.758,1.738 5.508,1.441c2.135,-0.364 4.382,-0.672 6.474,-1.239c1.348,-0.366 2.742,-0.535 4.106,-0.882c1.931,-0.491 4.589,-1.042 6.574,-0.624c1.471,0.31 2.358,2.353 2.951,3.697c1.324,2.999 1.795,6.26 1.94,9.512c0.141,3.159 0.451,6.111 0.083,9.259c-0.184,1.565 -1.634,2.754 -3.197,2.784c-1.957,0.039 -3.83,-0.405 -5.56,-1.642c-0.957,8.56 -5.874,13.824 -13.734,16.914zM250.904,162.622c-2.746,0.126 -5.506,0.763 -8.171,1.357c-2.437,0.544 -4.301,2.158 -6.128,3.723c-0.807,0.692 -1.475,1.674 -1.906,2.657c-1.377,3.136 -2.709,6.299 -3.852,9.527c-0.426,1.206 -0.576,2.671 -0.341,3.922c0.656,3.487 2.179,6.681 4.099,9.638c0.779,1.201 1.802,2.416 3.005,3.125c1.848,1.087 3.936,1.772 5.945,2.571c1.049,0.416 2.124,0.886 3.226,1.027c3.992,0.511 8.021,0.678 11.987,-0.082c4.349,-0.833 8.242,-2.813 11.692,-5.577c2.372,-1.9 3.661,-4.517 4.43,-7.445c1.05,-3.992 0.554,-7.269 -1.045,-10.964c-1.101,-2.544 -3.002,-5.43 -5.264,-7.051c-0.984,-0.705 -1.851,-1.589 -2.876,-2.225c-1.742,-1.081 -3.46,-2.446 -5.38,-2.937c-2.861,-0.732 -5.525,-1.288 -8.471,-1.288c-0.315,0 -0.633,0.008 -0.95,0.022zM242.844,222.6c0.005,0.029 -0.059,-0.249 -0.087,-0.531c-0.079,-0.812 -1.29,-5.264 0.533,-4.873c1.317,0.284 1.41,3.731 1.548,4.639c0.131,0.87 0.479,1.725 0.502,2.593c0.11,4.077 1.118,7.976 2.316,11.825c0.811,2.606 1.833,5.178 4.964,5.797c1.924,0.381 3.825,0.53 5.808,-0.055c3.521,-1.038 5.041,-3.237 4.401,-6.889c-0.449,-2.563 -0.864,-5.132 -1.403,-7.676c-0.337,-1.593 -0.729,-3.173 -1.106,-4.757c-0.222,-0.934 -0.756,-2.512 -0.591,-3.453c-0.247,0.521 -1.22,1.253 -1.783,0.57c-1.299,-1.576 1.994,-3.568 2.561,-4.642c0.814,-1.541 1.6,-3.144 2.062,-4.815c0.655,-2.363 1.008,-4.812 1.485,-7.203c-1.68,0.267 -3.116,0.546 -4.565,0.714c-1.475,0.171 -2.96,0.279 -4.445,0.328c-1.027,0.034 -2.067,-0.019 -3.089,-0.138c-1.569,-0.185 -3.138,-0.702 -4.69,-0.641c-2.468,0.096 -4.924,0.542 -7.383,0.861c-0.636,0.083 -1.27,0.216 -1.894,0.37c-0.91,0.223 -2.03,0.24 -2.651,0.801c-0.709,0.642 -1.01,2.236 -1.333,3.131c-0.407,1.126 -0.423,2.392 -0.506,3.586c-0.278,4 0.616,6.978 2.849,10.295c0.413,0.615 0.899,1.182 1.287,1.688c1.682,-0.492 3.344,-0.978 5.21,-1.525zM208.334,202.801c-0.282,0.167 -0.555,0.356 -0.859,0.579c-2.046,1.504 -4.332,4.399 -5.084,6.878c-1.032,3.405 -1.456,7.035 -1.251,10.642c0.153,2.699 0.694,5.378 0.789,8.076c0.149,4.196 1.613,8.053 2.809,11.97c0.577,1.893 1.932,3.434 3.934,3.938c3.807,0.96 7.281,0.456 9.7,-3.059c0.487,-0.708 0.926,-1.681 0.866,-2.493c-0.175,-2.364 -0.62,-4.71 -0.947,-7.063c-0.309,-2.227 -0.591,-4.458 -0.929,-6.68c-0.032,-0.209 -0.348,-0.454 -0.583,-0.538c-0.94,-0.338 -1.928,-0.552 -2.841,-0.948c-0.443,-0.192 -0.91,-0.623 -1.078,-1.059c-0.112,-0.291 0.22,-0.831 0.481,-1.156c0.965,-1.201 5.388,1.656 6.582,2.033c2.52,0.797 1.655,-0.748 1.036,-2.398c-0.796,-2.123 -1.125,-4.786 -1.029,-7.041c0.115,-2.718 -0.476,-5.535 0.69,-8.177c0.113,-0.258 0.154,-0.608 0.078,-0.871c-0.072,-0.249 -0.316,-0.596 -0.53,-0.633c-2.621,-0.446 -5.189,-0.803 -7.499,-2.3c-1.573,-1.02 -2.66,-0.687 -4.335,0.3zM217.634,173.465c0.053,4.052 1.44,7.687 3.254,11.187c0.584,1.129 1.489,1.357 2.509,0.639c4.449,-3.127 5.661,-7.88 7.386,-12.809c0.549,-1.568 1.006,-3.183 1.737,-4.679c0.505,-1.033 1.351,-2.232 -0.332,-2.478c-3.994,-0.584 -7.982,-0.313 -11.969,0.017c-1.214,0.1 -2.072,0.69 -2.173,2.016c-0.154,2.035 -0.276,4.071 -0.412,6.107zM268.564,165.292c0.832,0.753 1.51,1.496 2.31,2.067c3.119,2.229 4.624,5.516 5.627,9.003c0.679,2.364 1.317,4.527 3.632,5.851c1.886,1.078 4.081,0.55 4.402,-1.459c0.446,-2.782 0.363,-5.62 -0.288,-8.36c-0.406,-1.705 -0.389,-3.514 -0.939,-5.23c-0.44,-1.377 -1.047,-3.517 -2.346,-4.369c-1.847,-1.211 -5.332,0.207 -7.278,0.505c-1.801,0.278 -3.508,0.74 -5.12,1.992zM245.71,127.947c1.21,-0.356 3.209,-0.926 5.193,-1.547c0.29,-0.091 0.539,-0.398 0.75,-0.653c1.382,-1.67 1.296,-5.837 -0.139,-7.777c-1.849,-2.499 -4.379,-2.748 -7.178,-2.268c-2.689,0.462 -4.593,2.042 -5.471,4.48c-1.249,3.462 2.274,7.852 6.845,7.765zM238.286,202.309c-2.876,-0.939 -5.706,-1.789 -8.483,-2.789c-3.641,-1.311 -7.153,-2.927 -10.299,-5.219c-1.42,-1.035 -2.737,-2.211 -4.082,-3.346c-0.307,-0.259 -0.534,-0.614 -0.797,-0.926c-0.32,0.373 -0.72,0.703 -0.945,1.128c-1.037,1.959 -1.034,4.071 -1.003,6.238c0.03,2.073 1.132,3.528 2.71,4.193c1.912,0.807 4.093,1.195 6.181,1.303c3.409,0.174 6.838,0.026 10.257,-0.087c2.161,-0.07 4.316,-0.325 6.461,-0.495zM204.093,203.647c-0.269,-0.236 -0.593,-0.447 -0.823,-0.735c-1.434,-1.794 -2.929,-3.546 -4.239,-5.428c-0.948,-1.363 -1.766,-2.85 -2.412,-4.38c-0.736,-1.744 -1.598,-3.371 -2.952,-4.687c-0.916,-0.891 -2.14,-0.681 -2.629,0.494c-0.329,0.789 -0.61,1.718 -0.522,2.543c0.457,4.341 2.486,8.059 5.15,11.362c1.466,1.817 3.454,3.212 5.241,4.828c1.124,-1.409 2.126,-2.668 3.186,-3.997zM263.853,214.416c-0.111,0 -0.222,0 -0.333,-0.001c-0.434,1.1 -1.014,2.17 -1.253,3.313c-0.164,0.785 0.122,1.674 0.248,2.51c0.346,2.305 0.679,4.612 1.085,6.906c0.379,2.145 0.928,4.262 1.243,6.415c0.199,1.359 0.076,2.763 0.171,4.14c0.018,0.253 0.358,0.626 0.615,0.697c1.685,0.462 3.511,-0.483 3.737,-2.203c0.206,-1.58 0.2,-3.289 -0.182,-4.824c-0.929,-3.727 -2.094,-7.397 -3.238,-11.066c-0.618,-1.987 -1.39,-3.926 -2.093,-5.887zM219.875,226.261c0.338,2.817 0.73,5.418 0.942,8.035c0.194,2.393 0.164,4.805 0.314,7.204c0.021,0.351 0.51,0.971 0.746,0.954c0.757,-0.055 1.638,-0.159 2.217,-0.588c1.654,-1.229 2.393,-3.033 2.262,-5.061c-0.282,-4.356 -0.091,-8.755 -5.119,-10.273c-0.403,-0.122 -0.829,-0.169 -1.362,-0.271zM233.092,221.124c-0.094,-0.089 -0.188,-0.159 -0.282,-0.204c-0.836,-0.4 -2.829,0.469 -3.755,0.652c-1.233,0.245 -2.447,0.57 -3.667,0.873c-0.878,0.217 -1.806,0.137 -1.464,1.199c0.385,1.2 2.546,1.857 3.644,1.856c2.014,-0.002 4.108,0.235 6.094,-0.21c1.197,-0.268 1.319,-0.486 0.891,-1.598c-0.332,-0.861 -0.781,-1.923 -1.461,-2.568zM221.832,214.375c3.368,-0.496 6.444,-0.95 9.802,-1.444c0,-0.935 -0.011,-1.923 0.004,-2.913c0.012,-0.777 -0.283,-1.017 -1.088,-0.889c-1.353,0.215 -2.726,0.308 -4.094,0.429c-1.51,0.134 -3.022,0.243 -4.624,0.37c0,1.435 0,2.875 0,4.447zM222.425,216.33c-0.162,0.111 -0.284,0.254 -0.348,0.439c-0.227,0.657 0.04,3.318 0.687,3.742c0.757,0.493 2.836,-0.347 3.599,-0.583c1.728,-0.535 3.509,-0.745 5.265,-1.188c0.876,-0.221 0.929,-0.08 0.838,-1.086c-0.072,-0.803 -0.533,-1.528 -0.545,-2.341c0.001,0.067 -6.142,0.524 -6.592,0.567c-0.844,0.082 -2.227,-0.014 -2.904,0.45zM233.307,205.039c-2.589,-0.358 -5.467,-0.062 -8.087,-0.033c-0.65,0.008 -1.65,0.113 -2.158,0.593c-0.519,0.492 -0.587,1.347 -0.85,1.98c2.182,0.036 4.22,0.003 6.427,-0.184c0.96,-0.081 1.993,0.058 2.926,-0.236c0.404,-0.127 0.896,-0.32 1.199,-0.633c0.111,-0.114 0.835,-1.452 0.587,-1.482c-0.015,-0.001 -0.03,-0.003 -0.044,-0.005z" fill="#2a3d98" fill-rule="nonzero" stroke-width="1"/><path d="M265.9467,220.253c1.144,3.669 2.33635,7.43038 3.26535,11.15738c0.382,1.535 0.3769,3.24965 0.1709,4.82965c-0.226,1.72 -2.06992,2.66795 -3.75492,2.20595c-0.257,-0.071 -0.59979,-0.44413 -0.61779,-0.69713c-0.095,-1.377 0.02466,-2.78136 -0.17434,-4.14036c-0.315,-2.153 -0.90479,-4.30508 -1.28379,-6.45008c-0.406,-2.294 -0.71478,-4.65946 -1.06078,-6.96446c-0.126,-0.836 -0.40735,-1.7272 -0.24335,-2.5122c0.239,-1.143 0.82849,-2.21584 1.26249,-3.31584c0.111,0.001 0.22332,0.00076 0.33432,0.00076c0.703,1.961 1.48392,3.89933 2.10192,5.88633z" data-paper-data="{&quot;noHover&quot;:false,&quot;origItem&quot;:[&quot;Path&quot;,{&quot;applyMatrix&quot;:true,&quot;segments&quot;:[[[263.853,214.416],[0.703,1.961],[-0.111,0]],[[263.52,214.415],[0.111,0.001],[-0.434,1.1]],[[262.267,217.728],[0.239,-1.143],[-0.164,0.785]],[[262.515,220.238],[-0.126,-0.836],[0.346,2.305]],[[263.6,227.144],[-0.406,-2.294],[0.379,2.145]],[[264.843,233.559],[-0.315,-2.153],[0.199,1.359]],[[265.014,237.699],[-0.095,-1.377],[0.018,0.253]],[[265.629,238.396],[-0.257,-0.071],[1.685,0.462]],[[269.366,236.193],[-0.226,1.72],[0.206,-1.58]],[[269.184,231.369],[0.382,1.535],[-0.929,-3.727]],[[265.946,220.303],[1.144,3.669],[-0.618,-1.987]]],&quot;closed&quot;:true,&quot;fillColor&quot;:[0,0,0,1],&quot;fillRule&quot;:&quot;evenodd&quot;}]}" fill="#5da843" fill-rule="evenodd" stroke-width="0.5"/><path d="M218.0121,167.32124c0.101,-1.326 0.96986,-1.92362 2.18386,-2.02362c3.987,-0.33 8.02606,-0.59803 12.02006,-0.01403c1.683,0.246 0.84328,1.45004 0.33828,2.48304c-0.731,1.496 -1.17817,3.12388 -1.72717,4.69188c-1.725,4.929 -2.99105,9.7545 -7.44005,12.8815c-1.02,0.718 -1.93693,0.48597 -2.52093,-0.64303c-1.814,-3.5 -3.22776,-7.19171 -3.28076,-11.24371c0.136,-2.036 0.27271,-4.09702 0.42671,-6.13202z" data-paper-data="{&quot;noHover&quot;:false,&quot;origItem&quot;:[&quot;Path&quot;,{&quot;applyMatrix&quot;:true,&quot;segments&quot;:[[[217.634,173.465],[0.136,-2.036],[0.053,4.052]],[[220.888,184.652],[-1.814,-3.5],[0.584,1.129]],[[223.397,185.291],[-1.02,0.718],[4.449,-3.127]],[[230.783,172.482],[-1.725,4.929],[0.549,-1.568]],[[232.52,167.803],[-0.731,1.496],[0.505,-1.033]],[[232.188,165.325],[1.683,0.246],[-3.994,-0.584]],[[220.219,165.342],[3.987,-0.33],[-1.214,0.1]],[[218.046,167.358],[0.101,-1.326],[-0.154,2.035]]],&quot;closed&quot;:true,&quot;fillColor&quot;:[0,0,0,1],&quot;fillRule&quot;:&quot;evenodd&quot;}]}" fill="#5da843" fill-rule="evenodd" stroke-width="0.5"/><path d="M273.66853,163.25245c1.946,-0.298 5.46655,-1.71424 7.31355,-0.50324c1.299,0.852 1.92474,3.00628 2.36474,4.38328c0.55,1.716 0.54417,3.55557 0.95017,5.26057c0.651,2.74 0.71854,5.61511 0.27254,8.39711c-0.321,2.009 -2.53376,2.54794 -4.41976,1.46994c-2.315,-1.324 -2.97222,-3.48417 -3.65122,-5.84817c-1.003,-3.487 -2.54289,-6.85719 -5.66189,-9.08619c-0.8,-0.571 -1.47798,-1.31403 -2.30998,-2.06703c1.612,-1.252 3.34085,-1.72827 5.14185,-2.00627z" data-paper-data="{&quot;noHover&quot;:false,&quot;origItem&quot;:[&quot;Path&quot;,{&quot;applyMatrix&quot;:true,&quot;segments&quot;:[[[268.564,165.292],[1.612,-1.252],[0.832,0.753]],[[270.874,167.359],[-0.8,-0.571],[3.119,2.229]],[[276.501,176.362],[-1.003,-3.487],[0.679,2.364]],[[280.133,182.213],[-2.315,-1.324],[1.886,1.078]],[[284.535,180.754],[-0.321,2.009],[0.446,-2.782]],[[284.247,172.394],[0.651,2.74],[-0.406,-1.705]],[[283.308,167.164],[0.55,1.716],[-0.44,-1.377]],[[280.962,162.795],[1.299,0.852],[-1.847,-1.211]],[[273.684,163.3],[1.946,-0.298],[-1.801,0.278]]],&quot;closed&quot;:true,&quot;fillColor&quot;:[0,0,0,1],&quot;fillRule&quot;:&quot;evenodd&quot;}]}" fill="#5da843" fill-rule="evenodd" stroke-width="0.5"/><path d="M278.03173,183.49105c1.73,1.237 3.6027,1.68176 5.5597,1.64276c1.563,-0.03 3.01143,-1.2143 3.19543,-2.7793c0.368,-3.148 0.05617,-6.08784 -0.08483,-9.24684c-0.145,-3.252 -0.61455,-6.49965 -1.93855,-9.49865c-0.593,-1.344 -1.47808,-3.38093 -2.94908,-3.69093c-1.985,-0.418 -4.64172,0.13601 -6.57272,0.62701c-1.364,0.347 -2.75712,0.51779 -4.10512,0.88379c-2.092,0.567 -4.33626,0.87967 -6.47126,1.24367c-1.75,0.297 -3.77077,-0.96873 -5.49777,-1.42973c-3.953,-1.054 -7.97923,-1.15465 -12.03523,-0.69465c-3.352,0.38 -6.51375,1.30963 -9.40375,3.15763c-0.386,0.247 -0.99739,0.21243 -1.50039,0.18643c-3.268,-0.169 -6.52923,-0.43797 -9.80023,-0.55397c-2.365,-0.085 -4.73881,-0.05367 -7.10481,0.03133c-2.474,0.089 -3.18977,0.72948 -3.31677,3.14448c-0.148,2.846 -0.16252,5.6897 -0.16252,8.5417c0.001,2.896 0.92648,5.576 1.99948,8.219c0.375,0.925 0.75141,1.84994 1.20741,2.73694c0.786,1.528 2.17046,2.04404 3.78946,2.19604c1.383,0.131 2.02873,-0.83143 2.88273,-1.58143c0.776,-0.682 1.51212,-1.55806 2.39912,-2.51906c0.511,1.795 0.95259,3.35694 1.45359,5.11894c-1.646,0.105 -3.40703,0.35978 -5.05403,0.37778c-0.894,0.01 -3.28221,-0.24708 -2.18921,1.54392c0.634,1.04 1.9062,0.57652 2.8332,0.43252c1.606,-0.25 3.29855,-0.09401 4.92155,-0.06301c0.327,0.006 0.80662,0.30462 0.94362,0.59762c1.632,3.492 4.03969,6.12088 7.73069,7.45088c0.063,0.023 0.05988,0.21745 0.30788,0.55045c-1.763,-0.396 -3.32698,-0.62447 -4.79798,-1.11147c-2.379,-0.788 -4.75788,-1.64876 -7.03988,-2.67776c-1.712,-0.772 -3.26422,-1.90884 -4.92222,-2.81184c-3.87,-2.108 -6.29767,-5.62751 -8.67267,-9.13851c-0.642,-0.948 -0.86125,-2.22042 -1.14325,-3.37442c-0.505,-2.058 -1.2062,-4.13904 -1.2802,-6.22604c-0.09,-2.522 -0.0017,-5.18675 0.6923,-7.58475c1.832,-6.329 5.51647,-11.55344 10.64347,-15.70644c2.965,-2.402 6.24977,-4.12035 9.90277,-5.31435c5.027,-1.643 10.24005,-2.16563 15.41605,-2.56363c5.524,-0.424 11.02042,0.42348 16.43142,1.76348c6.62,1.641 12.58838,4.65368 18.03238,8.64368c1.45,1.064 2.53612,2.78759 3.45112,4.39759c1.026,1.806 1.81431,3.79179 2.45631,5.77579c1.419,4.391 1.57057,8.8423 0.71057,13.4383c-0.749,4.005 -2.2944,7.57955 -4.6724,10.75355c-1.422,1.897 -3.24989,3.51913 -4.99889,5.14513c-3.803,3.537 -8.35618,5.75014 -13.33118,7.09314c-0.323,0.087 -0.65931,0.13169 -0.99131,0.17769c-0.062,0.009 -0.18194,-0.16033 -0.63394,-0.41633c7.86,-3.09 12.75293,-8.32815 13.70993,-16.88815z" data-paper-data="{&quot;noHover&quot;:false,&quot;origItem&quot;:[&quot;Path&quot;,{&quot;applyMatrix&quot;:true,&quot;segments&quot;:[[[264.344,200.424],[7.86,-3.09],[0.452,0.256]],[[264.933,200.751],[-0.062,0.009],[0.332,-0.046]],[[265.923,200.574],[-0.323,0.087],[4.975,-1.343]],[[279.238,193.495],[-3.803,3.537],[1.749,-1.626]],[[284.232,188.358],[-1.422,1.897],[2.378,-3.174]],[[288.9,177.619],[-0.749,4.005],[0.86,-4.596]],[[288.19,164.198],[1.419,4.391],[-0.642,-1.984]],[[285.736,158.43],[1.026,1.806],[-0.915,-1.61]],[[282.288,154.039],[1.45,1.064],[-5.444,-3.99]],[[264.276,145.415],[6.62,1.641],[-5.411,-1.34]],[[247.872,143.657],[5.524,-0.424],[-5.176,0.398]],[[232.48,146.212],[5.027,-1.643],[-3.653,1.194]],[[222.589,151.515],[2.965,-2.402],[-5.127,4.153]],[[211.955,167.198],[1.832,-6.329],[-0.694,2.398]],[[211.263,174.773],[-0.09,-2.522],[0.074,2.087]],[[212.542,180.991],[-0.505,-2.058],[0.282,1.154]],[[213.684,184.361],[-0.642,-0.948],[2.375,3.511]],[[222.349,193.485],[-3.87,-2.108],[1.658,0.903]],[[227.266,196.291],[-1.712,-0.772],[2.282,1.029]],[[234.297,198.962],[-2.379,-0.788],[1.471,0.487]],[[239.088,200.07],[-1.763,-0.396],[-0.248,-0.333]],[[238.742,199.612],[0.063,0.023],[-3.691,-1.33]],[[230.996,192.151],[1.632,3.492],[-0.137,-0.293]],[[230.051,191.552],[0.327,0.006],[-1.623,-0.031]],[[225.126,191.611],[1.606,-0.25],[-0.927,0.144]],[[222.291,191.176],[0.634,1.04],[-1.093,-1.791]],[[224.563,189.576],[-0.894,0.01],[1.647,-0.018]],[[229.537,189.258],[-1.646,0.105],[-0.501,-1.762]],[[228.078,184.131],[0.511,1.795],[-0.887,0.961]],[[225.766,186.601],[0.776,-0.682],[-0.854,0.75]],[[222.797,188.233],[1.383,0.131],[-1.619,-0.152]],[[219.005,186.032],[0.786,1.528],[-0.456,-0.887]],[[217.796,183.291],[0.375,0.925],[-1.073,-2.643]],[[215.794,175.06],[0.001,2.896],[0,-2.852]],[[215.957,166.506],[-0.148,2.846],[0.127,-2.415]],[[219.275,163.356],[-2.474,0.089],[2.366,-0.085]],[[226.381,163.321],[-2.365,-0.085],[3.271,0.116]],[[236.185,163.867],[-3.268,-0.169],[0.503,0.026]],[[237.687,163.678],[-0.386,0.247],[2.89,-1.848]],[[247.119,160.5],[-3.352,0.38],[4.056,-0.46]],[[259.199,161.204],[-3.953,-1.054],[1.727,0.461]],[[264.707,162.645],[-1.75,0.297],[2.135,-0.364]],[[271.181,161.406],[-2.092,0.567],[1.348,-0.366]],[[275.287,160.524],[-1.364,0.347],[1.931,-0.491]],[[281.861,159.9],[-1.985,-0.418],[1.471,0.31]],[[284.812,163.597],[-0.593,-1.344],[1.324,2.999]],[[286.752,173.109],[-0.145,-3.252],[0.141,3.159]],[[286.835,182.368],[0.368,-3.148],[-0.184,1.565]],[[283.638,185.152],[1.563,-0.03],[-1.957,0.039]],[[278.078,183.51],[1.73,1.237],[-0.957,8.56]]],&quot;closed&quot;:true,&quot;fillColor&quot;:[0,0,0,1],&quot;fillRule&quot;:&quot;evenodd&quot;}]}" fill="#5da843" fill-rule="evenodd" stroke-width="0.5"/><path d="M237.58438,224.13111c-0.388,-0.506 -0.87436,-1.0804 -1.28736,-1.6954c-2.233,-3.317 -3.11805,-6.32227 -2.84005,-10.32227c0.083,-1.194 0.10402,-2.46613 0.51102,-3.59213c0.323,-0.895 0.62941,-2.49385 1.33841,-3.13585c0.621,-0.561 1.74608,-0.58145 2.65608,-0.80445c0.624,-0.154 1.26191,-0.2891 1.89791,-0.3721c2.459,-0.319 4.93279,-0.76977 7.40079,-0.86577c1.552,-0.061 3.13325,0.45657 4.70225,0.64157c1.022,0.119 2.06961,0.17392 3.09661,0.13993c1.485,-0.049 2.97865,-0.15312 4.45365,-0.32412c1.449,-0.168 2.89106,-0.44295 4.57106,-0.70995c-0.477,2.391 -0.82357,4.846 -1.47857,7.209c-0.462,1.671 -1.2432,3.28026 -2.05721,4.82126c-0.567,1.074 -3.85439,3.07781 -2.55539,4.65381c0.563,0.683 1.536,-0.04898 1.78301,-0.56997c-0.165,0.941 0.37141,2.53397 0.59341,3.46797c0.377,1.584 0.76592,3.18166 1.10291,4.77466c0.539,2.544 0.94467,5.12868 1.39367,7.69168c0.64,3.652 -0.89512,5.8627 -4.41612,6.9007c-1.983,0.585 -3.89664,0.44036 -5.82064,0.05936c-3.131,-0.619 -4.16688,-3.19019 -4.97788,-5.79619c-1.198,-3.849 -2.24686,-7.77585 -2.35686,-11.85285c-0.023,-0.868 -0.37476,-1.75646 -0.50576,-2.62646c-0.138,-0.908 -0.1473,-4.30785 -1.4643,-4.59185c-1.823,-0.391 -0.59735,4.03104 -0.51835,4.84304c0.028,0.282 0.0923,0.55562 0.0873,0.52662c-1.866,0.547 -3.62761,1.03777 -5.30961,1.52977z" data-paper-data="{&quot;noHover&quot;:false,&quot;origItem&quot;:[&quot;Path&quot;,{&quot;applyMatrix&quot;:true,&quot;segments&quot;:[[[485.688,445.2],[-3.732,1.094],[0.01,0.058]],[[485.514,444.138],[0.056,0.564],[-0.158,-1.624]],[[486.58,434.392],[-3.646,-0.782],[2.634,0.568]],[[489.676,443.67],[-0.276,-1.816],[0.262,1.74]],[[490.68,448.856],[-0.046,-1.736],[0.22,8.154]],[[495.312,472.506],[-2.396,-7.698],[1.622,5.212]],[[505.24,484.1],[-6.262,-1.238],[3.848,0.762]],[[516.856,483.99],[-3.966,1.17],[7.042,-2.076]],[[525.658,470.212],[1.28,7.304],[-0.898,-5.126]],[[522.852,454.86],[1.078,5.088],[-0.674,-3.186]],[[520.64,445.346],[0.754,3.168],[-0.444,-1.868]],[[519.458,438.44],[-0.33,1.882],[-0.494,1.042]],[[515.892,439.58],[1.126,1.366],[-2.598,-3.152]],[[521.014,430.296],[-1.134,2.148],[1.628,-3.082]],[[525.138,420.666],[-0.924,3.342],[1.31,-4.726]],[[528.108,406.26],[-0.954,4.782],[-3.36,0.534]],[[518.978,407.688],[2.898,-0.336],[-2.95,0.342]],[[510.088,408.344],[2.97,-0.098],[-2.054,0.068]],[[503.91,408.068],[2.044,0.238],[-3.138,-0.37]],[[494.53,406.786],[3.104,-0.122],[-4.936,0.192]],[[479.764,408.508],[4.918,-0.638],[-1.272,0.166]],[[475.976,409.248],[1.248,-0.308],[-1.82,0.446]],[[470.674,410.85],[1.242,-1.122],[-1.418,1.284]],[[468.008,417.112],[0.646,-1.79],[-0.814,2.252]],[[466.996,424.284],[0.166,-2.388],[-0.556,8]],[[472.694,444.874],[-4.466,-6.634],[0.826,1.23]],[[475.268,448.25],[-0.776,-1.012],[3.364,-0.984]]],&quot;closed&quot;:true,&quot;fillColor&quot;:[0,0,0,1],&quot;fillRule&quot;:&quot;evenodd&quot;}]}" fill="#5da843" fill-rule="evenodd" stroke-width="0.5"/></g><g fill="#2a3d98" fill-rule="evenodd" stroke-width="1"><path d="M254.994,181.245c-1.46,2.37 -3.728,3.68 -6.481,3.822c-2.448,0.126 -4.34,-1.226 -5.743,-3.204c-0.535,-0.756 -2.2,-2.708 -1.673,-3.561c1.361,-2.202 3.482,2.473 3.982,3.03c1.45,1.615 3.534,1.588 5.265,0.423c1.442,-0.969 2.515,-2.199 2.856,-4.112c-0.453,-0.028 -0.887,-0.036 -1.318,-0.085c-0.82,-0.096 -1.408,-0.614 -1.281,-1.39c0.072,-0.437 0.712,-1.001 1.184,-1.108c1.312,-0.292 2.668,-0.439 4.013,-0.499c0.375,-0.017 1.024,0.409 1.1,0.736c0.114,0.488 0.007,1.255 -0.323,1.568c-0.655,0.621 -0.536,1.096 -0.148,1.736c1.938,3.191 6.619,2.991 8.469,-0.453c0.551,-1.024 0.764,-2.26 0.977,-3.427c0.15,-0.816 0.266,-1.347 1.294,-1.227c1.079,0.126 1.576,0.882 1.498,1.698c-0.455,4.73 -3.905,9.375 -9.738,7.762c-1.334,-0.368 -2.568,-1.104 -3.933,-1.709z"/><path d="M258.939,169.692c0.624,-0.564 1.854,-0.161 2.241,0.67c0.523,1.124 -0.192,2.657 -1.537,2.39c-0.979,-0.195 -1.182,-1.552 -1.049,-2.372c0.049,-0.309 0.174,-0.535 0.345,-0.688z"/><path d="M246.891,170.964c0.135,-0.756 0.42,-1.508 1.421,-1.536c0.759,-0.021 1.801,1.305 1.59,2.216c-0.1,0.432 -0.777,0.955 -1.251,1.024c-0.868,0.125 -1.777,-0.843 -1.76,-1.704z"/></g></g></g></svg>